[Header]
FileType HTR
DataType HTRS
FileVersion 1
NumSegments 22
NumFrames 6
DataFrameRate 24
EulerRotationOrder ZYX
CalibrationUnits mm
RotationUnits Degrees
GlobalAxisofGravity Y
BoneLengthAxis Y
ScaleFactor 1.0
[SegmentNames&Hierarchy]
reference	GLOBAL
Hips	reference
Spine	Hips
Spine1	Spine
Neck	Spine1
Head	Neck
LeftShoulder	Spine1
LeftArm	LeftShoulder
LeftForeArm	LeftArm
LeftHand	LeftForeArm
RightShoulder	Spine1
RightArm	RightShoulder
RightForeArm	RightArm
RightHand	RightForeArm
LeftUpLeg	Hips
LeftLeg	LeftUpLeg
LeftFoot	LeftLeg
LeftToeBase	LeftFoot
RightUpLeg	Hips
RightLeg	RightUpLeg
RightFoot	RightLeg
RightToeBase	RightFoot
[BasePosition]
reference	0	0	0	0	0	0	1
Hips	0	0	0	0	0	0	1
Spine	0	0	0	0	-0	90	1
Spine1	0	0	0	0	0	0	1
Neck	0	0	0	-7.352430803	-7.352430803	90	1
Head	0	0	0	0	-0	90	1
LeftShoulder	0	0	0	0	0	0	1
LeftArm	0	0	0	0	0	0	1
LeftForeArm	0	0	0	0	0	0	1
LeftHand	0	0	0	0	0	0	1
RightShoulder	0	0	0	0	-0	180	1
RightArm	0	0	0	0	-0	180	1
RightForeArm	0	0	0	0	-0	180	1
RightHand	0	0	0	0	-0	180	1
LeftUpLeg	0	0	0	0	-0	-90	1
LeftLeg	0	0	0	0	-0	-90	1
LeftFoot	0	0	0	66.57150701	-66.57150701	-90	1
LeftToeBase	0	0	0	0	-90	0	1
RightUpLeg	0	0	0	0	-0	-90	1
RightLeg	0	0	0	0	-0	-90	1
RightFoot	0	0	0	66.57150701	-66.57150701	-90	1
RightToeBase	0	0	0	0	-90	0	1
[reference]
28	0	0	0	0	-0	0	1.0
29	0	0	0	0	-0	0	1.0
30	0	0	0	0	-0	0	1.0
31	0	0	0	0	-0	0	1.0
32	0	0	0	0	-0	0	1.0
33	0	0	0	0	-0	0	1.0
[Hips]
28	3.095607519	7.803186893	0.5478768945	11.98051453	-75.63470459	-16.43688583	1.0
29	2.875286341	7.879103661	0.4263991714	9.78649807	-67.28000641	-15.53155708	1.0
30	2.857702732	8.08454895	0.2364777029	17.8865757	-59.97883987	-22.52504921	1.0
31	2.846257448	8.473430634	0.01509999949	30.32568359	-53.95667267	-33.13691711	1.0
32	2.835705757	8.888010979	-0.1645273864	44.17759323	-49.63872147	-43.74452209	1.0
33	2.818167448	9.127066612	-0.2858567238	52.06721497	-44.08111191	-50.00574493	1.0
[Spine]
28	0	0.7478299737	0	-6.842813492	6.757767677	-90.02882385	1.0
29	0	0.7478299737	0	-5.228738785	0.7701606154	-90.89879608	1.0
30	0	0.7478299737	0	-3.210331917	-6.314641953	-91.83779907	1.0
31	0	0.7478299737	0	-1.404801607	-10.617239	-91.23429108	1.0
32	0	0.7478299737	0	-1.676707983	-11.78212929	-90.67181396	1.0
33	0	0.7478299737	0	-2.003651142	-12.1203661	-87.14365387	1.0
[Spine1]
28	0	2.049309969	0	4.172387123	2.650161266	-10.48075581	1.0
29	0	2.049309969	0	7.211888313	1.231965303	-14.62762356	1.0
30	0	2.049309969	0	10.50291634	-1.07339859	-10.75689316	1.0
31	0	2.049309969	0	14.70639133	-3.096307039	-4.080672264	1.0
32	0	2.049309969	0	19.13182259	-4.718771935	4.604561806	1.0
33	0	2.049309969	0	20.51935387	-5.642431259	8.77270031	1.0
[Neck]
28	0	2.231709957	0	7.766632557	-5.364169121	-88.06543732	1.0
29	0	2.231709957	0	8.562069893	-5.956755161	-80.7952652	1.0
30	0	2.231709957	0	6.563605309	-4.997270107	-72.53870392	1.0
31	0	2.231709957	0	2.272485256	-2.373431683	-61.27157593	1.0
32	0	2.231709957	0	-3.717058897	1.642680287	-54.10255432	1.0
33	0	2.231709957	0	-6.174040318	3.630955219	-51.54169083	1.0
[Head]
28	0	1.413589954	0.1823999882	-4.232157707	-13.34903336	-82.22201538	1.0
29	0	1.413589954	0.1823999882	-8.122903824	-12.68068314	-79.9750061	1.0
30	0	1.413589954	0.1823999882	-10.7846756	-10.47169971	-83.22434998	1.0
31	0	1.413589954	0.1823999882	-13.37565804	-7.287799835	-90.99754333	1.0
32	0	1.413589954	0.1823999882	-13.99423695	-4.521745682	-98.59493256	1.0
33	0	1.413589954	0.1823999882	-15.20718288	-3.395430565	-101.4385071	1.0
[LeftShoulder]
28	0.3649300039	1.825889945	-0.04271000251	-10.59505081	-4.354840279	9.160800934	1.0
29	0.3649300039	1.825889945	-0.04271000251	-13.5029707	-8.345352173	12.51413918	1.0
30	0.3649300039	1.825889945	-0.04271000251	-16.0714817	-14.67785454	14.14362812	1.0
31	0.3649300039	1.825889945	-0.04271000251	-17.40334892	-20.7669487	15.88273048	1.0
32	0.3649300039	1.825889945	-0.04271000251	-18.56850624	-24.40268517	16.69145012	1.0
33	0.3649300039	1.825889945	-0.04271000251	-16.98396492	-25.30802345	15.54603672	1.0
[LeftArm]
28	1.24003005	0	0	43.57207108	-8.057167053	-57.37127686	1.0
29	1.24003005	0	0	47.98752213	-11.84013462	-57.82204056	1.0
30	1.24003005	0	0	51.45378494	-14.02614975	-63.16796112	1.0
31	1.24003005	0	0	52.04367065	-14.8051405	-68.35167694	1.0
32	1.24003005	0	0	54.30210876	-15.11390877	-73.23480225	1.0
33	1.24003005	0	0	52.86211777	-16.3938427	-76.14755249	1.0
[LeftForeArm]
28	2.847419977	0	0	-181.7246857	-50.5061264	178.1087646	1.0
29	2.847419977	0	0	-177.0402374	-49.38844299	177.2191467	1.0
30	2.847419977	0	0	-173.9929504	-51.49753571	175.7312317	1.0
31	2.847419977	0	0	-163.9783936	-51.02243805	171.2944946	1.0
32	2.847419977	0	0	-152.910553	-49.70293427	166.203537	1.0
33	2.847419977	0	0	-149.0322113	-52.0230484	162.9285431	1.0
[LeftHand]
28	2.258270025	0	0	-5.044656754	-11.03113747	-7.211960793	1.0
29	2.258270025	0	0	-2.761166811	-11.36382675	-3.276234627	1.0
30	2.258270025	0	0	-2.723724604	-13.23738766	-0.9348644018	1.0
31	2.258270025	0	0	-2.216079473	-13.59375381	0.9380972981	1.0
32	2.258270025	0	0	-2.213550806	-13.67322063	0.2082114518	1.0
33	2.258270025	0	0	-2.9781003	-14.0726366	-1.968069315	1.0
[RightShoulder]
28	-0.3646599948	1.825889945	-0.04271000251	-9.953489304	8.949160576	168.6493073	1.0
29	-0.3646599948	1.825889945	-0.04271000251	-6.930647373	9.116646767	172.5028381	1.0
30	-0.3646599948	1.825889945	-0.04271000251	-8.77163887	7.16190052	173.4428711	1.0
31	-0.3646599948	1.825889945	-0.04271000251	-9.011557579	3.155728817	177.3288422	1.0
32	-0.3646599948	1.825889945	-0.04271000251	-11.97353077	1.094114065	179.2382202	1.0
33	-0.3646599948	1.825889945	-0.04271000251	-12.91278362	2.366406679	180.0860901	1.0
[RightArm]
28	-1.24003005	0	0	48.58499908	-8.411909103	-101.5015793	1.0
29	-1.24003005	0	0	48.80233002	-6.406391144	-101.9451065	1.0
30	-1.24003005	0	0	50.0792923	-7.772053242	-102.9506683	1.0
31	-1.24003005	0	0	52.75754547	-6.912396431	-106.4459839	1.0
32	-1.24003005	0	0	55.34622574	-7.491014004	-109.4716797	1.0
33	-1.24003005	0	0	54.46214676	-8.708355904	-111.0974045	1.0
[RightForeArm]
28	-2.847419977	0	0	-124.5593414	47.61844254	21.84182739	1.0
29	-2.847419977	0	0	-123.9389343	45.29314041	21.06567383	1.0
30	-2.847419977	0	0	-123.5460968	43.59440613	21.2037487	1.0
31	-2.847419977	0	0	-117.7244797	40.0727272	23.59240723	1.0
32	-2.847419977	0	0	-114.1978378	37.60517883	25.01288033	1.0
33	-2.847419977	0	0	-113.1946259	37.66756821	26.35290527	1.0
[RightHand]
28	-2.258270025	0	0	8.060754776	12.23191261	178.766098	1.0
29	-2.258270025	0	0	7.885139942	12.12088871	178.8347168	1.0
30	-2.258270025	0	0	6.024258137	13.60103607	177.9495239	1.0
31	-2.258270025	0	0	1.925177097	14.0743866	174.2569885	1.0
32	-2.258270025	0	0	-1.549689174	15.06530094	171.1245728	1.0
33	-2.258270025	0	0	-3.567850351	13.76516151	168.1351166	1.0
[LeftUpLeg]
28	0.9119900465	0	0	-27.53090668	2.596450806	92.272995	1.0
29	0.9119900465	0	0	-24.59039879	2.107738972	92.41879272	1.0
30	0.9119900465	0	0	-25.21331787	3.442903042	95.16061401	1.0
31	0.9119900465	0	0	-27.35762787	8.981351852	101.0398865	1.0
32	0.9119900465	0	0	-30.96690941	21.48131561	106.3590012	1.0
33	0.9119900465	0	0	-36.41848373	32.41555405	108.454361	1.0
[LeftLeg]
28	0	-4.371409893	0	53.33843613	-4.297921181	52.47308731	1.0
29	0	-4.371409893	0	53.64726639	-7.151207447	56.39515305	1.0
30	0	-4.371409893	0	51.51504517	-13.13932896	60.41953278	1.0
31	0	-4.371409893	0	44.2833252	-14.74673271	68.22866058	1.0
32	0	-4.371409893	0	36.99401855	-7.53742218	75.4807663	1.0
33	0	-4.371409893	0	36.74045563	-5.434034824	78.75323486	1.0
[LeftFoot]
28	0	-3.918009996	0	-77.39067078	137.3771057	-11.97889805	1.0
29	0	-3.918009996	0	-82.10811615	133.8959503	-18.04223633	1.0
30	0	-3.918009996	0	-84.63264465	132.0464172	-22.42271805	1.0
31	0	-3.918009996	0	-88.25498962	126.8387756	-33.50546265	1.0
32	0	-3.918009996	0	-103.1316376	122.9042206	-59.63867188	1.0
33	0	-3.918009996	0	-114.9282761	122.9973297	-78.35175323	1.0
[LeftToeBase]
28	0	-0.5927900076	1.367989898	0	0	0	1.0
29	0	-0.5927900076	1.367989898	0	0	0	1.0
30	0	-0.5927900076	1.367989898	0	0	0	1.0
31	0	-0.5927900076	1.367989898	0	0	0	1.0
32	0	-0.5927900076	1.367989898	0	0	0	1.0
33	0	-0.5927900076	1.367989898	0	0	0	1.0
[RightUpLeg]
28	-0.9119900465	0	0	25.33830833	-44.52231598	90.5740509	1.0
29	-0.9119900465	0	0	0.5595524311	-45.84389114	103.1656952	1.0
30	-0.9119900465	0	0	-30.89619064	-39.16778183	118.1342163	1.0
31	-0.9119900465	0	0	-59.32273865	-27.45968246	126.2859802	1.0
32	-0.9119900465	0	0	-82.03231049	-16.21626472	120.1407928	1.0
33	-0.9119900465	0	0	-98.05330658	-19.52929688	108.6954498	1.0
[RightLeg]
28	0	-4.371409893	0	30.02311897	-7.846492767	65.77589417	1.0
29	0	-4.371409893	0	64.37451935	6.091645241	53.50337219	1.0
30	0	-4.371409893	0	94.38084412	19.16545868	57.21148682	1.0
31	0	-4.371409893	0	113.8003387	22.53546143	71.37164307	1.0
32	0	-4.371409893	0	115.1963348	21.39570236	71.40625	1.0
33	0	-4.371409893	0	97.34876251	14.305583	64.09614563	1.0
[RightFoot]
28	0	-3.918009996	0	62.97602081	51.95746231	115.0331573	1.0
29	0	-3.918009996	0	69.57556152	48.77299118	118.4687576	1.0
30	0	-3.918009996	0	67.07925415	48.13089752	116.5415497	1.0
31	0	-3.918009996	0	57.90218735	48.20852661	106.7822571	1.0
32	0	-3.918009996	0	57.45737076	51.15651703	99.58872986	1.0
33	0	-3.918009996	0	67.71186066	52.7408905	102.2641296	1.0
[RightToeBase]
28	0	-0.5927900076	1.367989898	0	0	0	1.0
29	0	-0.5927900076	1.367989898	0	0	0	1.0
30	0	-0.5927900076	1.367989898	0	0	0	1.0
31	0	-0.5927900076	1.367989898	0	0	0	1.0
32	0	-0.5927900076	1.367989898	0	0	0	1.0
33	0	-0.5927900076	1.367989898	0	0	0	1.0
[EndOfFile]
